<?xml version="1.0" encoding="UTF-8"?>
<svg xmlns="http://www.w3.org/2000/svg" width="512" height="512" viewBox="0 0 1024 1024">
  <path fill="#F4A11D" fill-rule="evenodd" d="M 757.0 580.5 L 739.0 577.5 L 732.5 572.0 L 727.5 562.0 L 727.5 522.0 L 734.0 513.5 L 741.5 511.0 L 741.0 445.5 L 527.0 553.5 L 518.0 556.5 L 503.0 556.5 L 248.0 428.5 L 239.5 421.0 L 235.5 414.0 L 236.5 398.0 L 248.0 384.5 L 499.0 258.5 L 507.0 256.5 L 521.0 257.5 L 776.0 385.5 L 783.5 393.0 L 787.5 402.0 L 787.5 412.0 L 783.5 421.0 L 771.5 431.0 L 771.5 511.0 L 779.0 513.5 L 785.5 522.0 L 785.5 563.0 L 782.5 570.0 L 776.0 576.5 L 770.0 579.5 L 757.0 580.5 Z M 512.5 511.0 L 724.5 404.0 L 530.0 305.5 L 511.0 296.5 L 298.5 404.0 L 512.5 511.0 Z M 501.0 759.5 L 332.0 669.5 L 322.5 661.0 L 317.5 648.0 L 319.0 489.5 L 356.5 510.0 L 356.5 636.0 L 361.0 641.5 L 474.0 701.5 L 475.5 646.0 L 441.0 626.5 L 427.0 630.5 L 416.0 630.5 L 408.0 627.5 L 397.5 618.0 L 393.5 611.0 L 391.5 603.0 L 392.5 591.0 L 398.5 580.0 L 406.0 573.5 L 420.0 568.5 L 433.0 570.5 L 446.5 580.0 L 451.5 588.0 L 455.0 603.5 L 501.5 630.0 L 501.0 759.5 Z M 522.0 759.5 L 519.5 759.0 L 519.5 630.0 L 567.0 604.5 L 567.5 596.0 L 571.5 586.0 L 578.0 578.5 L 588.0 572.5 L 604.0 571.5 L 613.0 574.5 L 621.5 581.0 L 627.5 591.0 L 629.5 599.0 L 628.5 610.0 L 623.5 620.0 L 616.0 627.5 L 600.0 633.5 L 590.0 632.5 L 579.0 627.5 L 545.5 647.0 L 546.0 702.5 L 661.0 640.5 L 664.5 635.0 L 664.5 510.0 L 702.0 489.5 L 702.5 651.0 L 698.5 660.0 L 689.0 669.5 L 522.0 759.5 Z M 424.5 610.0 L 431.5 605.0 L 432.5 598.0 L 428.0 591.5 L 421.0 589.5 L 413.5 595.0 L 412.5 602.0 L 418.0 609.5 L 424.5 610.0 Z M 601.5 612.0 L 607.5 607.0 L 608.5 601.0 L 603.0 593.5 L 595.0 592.5 L 588.5 599.0 L 588.5 606.0 L 595.0 612.5 L 601.5 612.0 Z"/>
</svg>
